<svg width="97" height="82" viewBox="0 0 97 82" fill="none" xmlns="http://www.w3.org/2000/svg">
<path d="M35.75 33.2222C35.75 48.2567 48.5 60.4444 48.5 60.4444C48.5 60.4444 61.25 48.2567 61.25 33.2222C61.25 18.1878 48.5 6 48.5 6C48.5 6 35.75 18.1878 35.75 33.2222Z" stroke="#141B34" stroke-width="11.8771" stroke-linejoin="round"/>
<path d="M24.4065 25.4444C14.9853 21.7351 6 21.5555 6 21.5555C6 21.5555 6.40681 38.5943 18.1428 49.3334C29.8789 60.0722 48.5 60.4444 48.5 60.4444C48.5 60.4444 67.121 60.0722 78.8573 49.3334C90.5933 38.5943 91 21.5555 91 21.5555C91 21.5555 82.0146 21.7351 72.5937 25.4444" stroke="#141B34" stroke-width="11.8771" stroke-linecap="round" stroke-linejoin="round"/>
<path d="M48.588 60.4444C47.8812 65.6295 51.3067 76 63.4324 76C71.9145 76 76.1556 68.2222 91 76C89.3 68.2218 85.8992 63.244 80.9398 60.4444M48.412 60.4444C49.1188 65.6295 45.6933 76 33.5678 76C25.0854 76 20.8442 68.2222 6 76C7.70021 68.2218 11.1008 63.244 16.06 60.4444" stroke="#141B34" stroke-width="11.8771" stroke-linecap="round" stroke-linejoin="round"/>
</svg>
