<svg width="254" height="233" viewBox="0 0 254 233" fill="none" xmlns="http://www.w3.org/2000/svg">
<path d="M90.7002 91.9444C90.7002 139.41 127 177.889 127 177.889C127 177.889 163.3 139.41 163.3 91.9444C163.3 44.4787 127 6 127 6C127 6 90.7002 44.4787 90.7002 91.9444Z" stroke="#141B34" stroke-width="11.8771" stroke-linejoin="round"/>
<path d="M58.4045 67.3887C31.5817 55.6781 6 55.111 6 55.111C6 55.111 7.15821 108.905 40.5714 142.81C73.9847 176.714 127 177.889 127 177.889C127 177.889 180.015 176.714 213.429 142.81C246.842 108.905 248 55.111 248 55.111C248 55.111 222.418 55.6781 195.596 67.3887" stroke="#141B34" stroke-width="11.8771" stroke-linecap="round" stroke-linejoin="round"/>
<path d="M127.25 177.889C125.238 194.259 134.991 227 169.513 227C193.663 227 205.737 202.445 248 227C243.16 202.443 233.478 186.728 219.358 177.889M126.75 177.889C128.762 194.259 119.009 227 84.4871 227C60.3372 227 48.2623 202.445 6 227C10.8406 202.443 20.5222 186.728 34.6416 177.889" stroke="#141B34" stroke-width="11.8771" stroke-linecap="round" stroke-linejoin="round"/>
</svg>
